<?xml version="1.0" encoding="utf-8"?>
<!-- Generator: Adobe Illustrator 22.1.0, SVG Export Plug-In . SVG Version: 6.00 Build 0)  -->
<svg version="1.1" id="Background" xmlns="http://www.w3.org/2000/svg" xmlns:xlink="http://www.w3.org/1999/xlink" x="0px" y="0px"
	 viewBox="0 0 700 200" style="enable-background:new 0 0 700 200;" xml:space="preserve">
<style type="text/css">
	.st0{opacity:0.9;}
	.st1{fill:none;stroke:#000000;stroke-width:15;}
	.st2{fill:none;stroke:#3564AD;stroke-width:15;}
	.st3{fill:#FFE031;}
</style>
<g>
	<g class="st0">
		<path class="st1" d="M48.4,136.7l-3.2-58.9l-5.5,1l1-18.6l47.3-7.1l1,17l-26.9,4.5l0.6,12.2L83,83.6l1,14.1l-20.5,3.8l2.2,35.2
			c-0.9,0.1-2.5,0.3-4.7,0.5c-2.2,0.2-4.2,0.3-6.1,0.3C52,137.6,49.8,137.3,48.4,136.7z"/>
		<path class="st1" d="M117.2,91.1c-0.9,0.9-2,1.9-3,2.9c-1.1,1-1.8,1.7-2.2,2l5.1,28.5l-13.4,3.5l-8-50.9c-0.2,0-0.4,0.2-0.9,0.7
			s-1,1.1-1.7,2c-0.7,0.9-1.1,1.3-1.2,1.4c-0.1,0-0.3-0.6-0.8-1.7c-0.4-1.1-1-2.7-1.7-4.7c-0.7-2-1.5-4.2-2.4-6.6
			c-0.9-2.4-1.5-4-1.8-4.6c3.2-1,6.1-2,8.9-2.9c2.8-0.9,5.7-1.7,8.8-2.5c3.1-0.8,6-1.4,8.8-1.9c2.8-0.5,5.6-0.7,8.3-0.7
			c2.1,0,4,0.2,5.8,0.5c1.8,0.3,3.4,0.9,5,1.6c1.6,0.8,3,1.8,4.2,3c1.2,1.3,2.2,2.8,3,4.5c0.3,0.5,0.4,1.2,0.4,2
			c0,1.3-0.4,2.7-1.2,4.2c-0.8,1.5-1.8,3.1-3,4.8c-1.3,1.7-2.7,3.5-4.2,5.3c1.4,0.2,2.8,1.2,4.1,3.1c1.3,1.9,2.3,4.2,2.9,6.8
			l6.7,34.6l-11.8,2.6L123.2,97c-0.2-0.4-0.5-1.1-0.9-2c-0.4-0.9-1-1.8-1.8-2.7c-0.8-0.9-1.6-1.3-2.4-1.3
			C117.9,91,117.6,91,117.2,91.1z M107.8,73.3l2.2,11.5c1.7-0.4,3.6-1.8,5.8-4.5c2.1-2.6,3.2-4.7,3.2-6.3c0-0.8-0.3-1.3-0.9-1.4
			c-2.7-0.7-4.4-1-5.4-1C111,71.7,109.4,72.2,107.8,73.3z"/>
		<path class="st1" d="M156.8,120.7l41,1.9l-0.3,17l-57-2.9l-3.5-67.9l-5.7,1.3l1.9-9.6l19.8-8.3L156.8,120.7z"/>
		<path class="st1" d="M209.7,102.1l-2.9-1.3l4.5-10.2l22.1,8.3l-5.1,43.2l-19.8-1.6c0.7-2.1,1.7-5.2,3-9.2c1.3-4,2.1-6.6,2.5-7.8
			c-1.7,0.8-5.1,1.3-10.2,1.3c-4.9,0-9.3-0.9-13-2.8c-3.7-1.9-6.8-5.1-9.2-9.6c-2.4-4.5-3.9-10.6-4.4-18.3c-0.1-0.8-0.1-1.9-0.1-3.4
			c0-3.9,0.4-7.6,1.3-11.1c0.9-3.5,2.4-6.7,4.4-9.6c2-2.9,4.9-5.2,8.5-7s7.9-2.7,13-2.8c3.4,0,6.7,0.4,10,1.2c3.3,0.8,6.3,1.9,9,3.3
			c2.7,1.4,5.1,3.2,7.1,5.2c2,2,3.2,4.2,3.8,6.6l-17.5,11.4c-1.2-2.9-5.1-4.4-11.8-4.4c-1.5,0-3.1,1.1-4.6,3.2
			c-1.6,2.2-2.4,4.6-2.4,7.3c0.1,2.1,0.7,4,1.8,5.9c1.1,1.9,3,2.9,5.8,3c0.2,0,0.6-0.1,1.2-0.2c0.6-0.1,1.1-0.3,1.6-0.4
			C208.8,102.3,209.3,102.2,209.7,102.1z"/>
		<path class="st1" d="M266.7,65.3c2.9-6.2,9-9.3,18.2-9.3c4.9,0,10,0.7,15.4,2.1s11.8,3.2,19.2,5.6c-0.6,1.3-1.8,4.6-3.7,9.8
			c-1.9,5.2-2.9,7.8-3,7.8c-0.2-0.2-1.4-0.9-3.6-2.1c-2.2-1.2-4.5-2.3-7.1-3.4c-2.6-1.1-4.7-1.7-6.3-1.9c-0.7-0.1-2.4-0.5-5.1-1.2
			c-2.7-0.7-4.7-1.1-6-1.1c-1.2,0-2.1,0.2-2.7,0.7c-1.1,0.8-1.6,1.6-1.6,2.7c0,0.9,0.4,2,1.3,3.1c0.9,1.1,2,2.2,3.5,3.3
			c1.4,1.1,3,2.2,4.8,3.2c1.7,1,3.5,2,5.2,2.8c3.5,1.7,6.5,3.7,9.1,5.9c2.6,2.2,4.6,4.4,6,6.6c1.4,2.2,2.5,4.4,3.1,6.7
			c0.7,2.3,1,4.4,1,6.4c0,2.4-0.4,4.5-1.3,6.5c-1.6,3.4-3.9,5.8-7,7.3c-3.1,1.5-6.7,2.3-11,2.3c-2.4,0-5.2-0.3-8.3-0.8
			c-3.1-0.5-6-1.1-8.9-1.9s-5.9-1.7-9-2.7c-3.2-1-5.9-1.9-8.3-2.7c0.4-0.8,1-2.4,1.9-4.8c0.9-2.4,1.6-4.4,2.2-6.2
			c0.6-1.7,1.2-3.3,1.7-4.6s0.8-2,0.9-2c0.7,0.6,3.2,1.9,7.3,3.9c4.2,2,7.4,3.2,9.6,3.4c0.8,0.1,2.3,0.4,4.3,0.9
			c2,0.5,3.4,0.9,4.1,1.1c0.7,0.2,1.6,0.3,2.6,0.3c1.2,0,2.1-0.2,2.7-0.7c1.2-0.9,1.8-1.8,1.8-2.7c0-2.1-2.7-4.6-8.2-7.5
			c-3.3-1.7-7-4.2-11.1-7.3c-4.1-3.1-7.6-6.8-10.7-10.9c-3.1-4.1-4.6-8.2-4.6-12.4C265.2,69.4,265.7,67.4,266.7,65.3z"/>
		<path class="st1" d="M329.2,127.3l1.9,31.4l-17.6,0.9l-2.7-50.7v-0.4c-0.1-1.3-0.2-2.3-0.2-2.9L310,91.9l-5.8,1.3l1.9-9.6
			l19.8-8.3l0.5,7.2c3.1-1.5,6.2-2.2,9.4-2.2c3.9,0,7.8,1.1,11.8,3.3c1.8,1,3.4,2.3,4.5,4c1.2,1.7,2,3.6,2.5,5.7
			c0.5,2.1,0.8,4.3,0.8,6.5c0,1.9-0.2,3.7-0.4,5.4c-0.3,1.7-0.7,3.3-1.2,4.8c-0.5,1.5-1.1,2.7-1.8,3.7c-2.2,3.3-4.6,5.9-7.1,8
			s-5.2,3.5-7.8,4.4C334.5,126.9,331.9,127.3,329.2,127.3z M327.4,96.8c0,1.5,0.3,2.9,1,4.3c0.7,1.4,1.4,2.4,2.2,2.9
			c2.1,1.3,4.1,2,5.9,2c1.8,0,3.5-0.6,4.9-1.9c1.4-1.2,2.5-2.8,3.3-4.8c0.8-1.9,1.1-3.9,1.1-5.8c0-1.3-0.2-2.5-0.5-3.6
			c-0.4,2-1.4,3.7-2.9,5.2c-1.5,1.5-2.9,2.3-4.3,2.3c-0.7,0-1.3-0.2-1.9-0.5c-0.8-0.6-1.2-1.7-1.2-3.3c0-1.2,0.4-2.4,1.2-3.6
			c0.8-1.2,2.1-2.1,3.8-2.8c-2.1,0-4.1,0.4-5.9,1.3s-3.3,2.1-4.6,3.6C328.5,93.8,327.7,95.3,327.4,96.8z"/>
		<path class="st1" d="M388.3,104.2l9.4,11.4c-0.8,2.2-2.5,4.2-5.4,6c-2.8,1.8-6.2,3.3-10.1,4.3c-3.9,1.1-7.8,1.6-11.7,1.6
			c-3.4,0-6.5-0.5-9.2-1.4s-4.8-2.3-6.2-4.1c-2.5-3.2-3.8-7.2-3.8-12.2c0-3.9,0.7-7.8,2.1-11.5s2.9-6.4,4.5-7.9
			c1.9-1.8,4-3.3,6.2-4.5c2.2-1.2,4.5-2.1,6.9-2.7c2.4-0.6,4.9-0.9,7.4-0.9c3.3,0,6.5,0.5,9.4,1.6c3,1.1,5.6,2.6,7.8,4.6L374.3,114
			c1.9,0,3.7-0.4,5.4-1.2c1.7-0.8,3.3-1.9,4.7-3.4C385.9,107.9,387.2,106.2,388.3,104.2z M377.5,95.1c-1.3-0.7-2.6-1-3.9-1
			c-1.4,0-2.8,0.3-4.1,0.9c-1.3,0.6-2.2,1.3-2.8,2c-1.6,2.1-2.4,4.4-2.4,6.9c0,0.9,0.1,1.8,0.3,2.6c0.2,0.8,0.5,2,0.9,3.4
			L377.5,95.1z"/>
		<path class="st1" d="M428.3,104.2l9.4,11.4c-0.8,2.2-2.5,4.2-5.4,6c-2.8,1.8-6.2,3.3-10.1,4.3c-3.9,1.1-7.8,1.6-11.7,1.6
			c-3.4,0-6.5-0.5-9.2-1.4s-4.8-2.3-6.2-4.1c-2.5-3.2-3.8-7.2-3.8-12.2c0-3.9,0.7-7.8,2.1-11.5s2.9-6.4,4.5-7.9
			c1.9-1.8,4-3.3,6.2-4.5c2.2-1.2,4.5-2.1,6.9-2.7c2.4-0.6,4.9-0.9,7.4-0.9c3.3,0,6.5,0.5,9.4,1.6c3,1.1,5.6,2.6,7.8,4.6L414.3,114
			c1.9,0,3.7-0.4,5.4-1.2c1.7-0.8,3.3-1.9,4.7-3.4C425.9,107.9,427.2,106.2,428.3,104.2z M417.5,95.1c-1.3-0.7-2.6-1-3.9-1
			c-1.4,0-2.8,0.3-4.1,0.9c-1.3,0.6-2.2,1.3-2.8,2c-1.6,2.1-2.4,4.4-2.4,6.9c0,0.9,0.1,1.8,0.3,2.6c0.2,0.8,0.5,2,0.9,3.4
			L417.5,95.1z"/>
		<path class="st1" d="M457.9,49.6l16.3-7.3l1,52.9c0.2,1.4,0.3,2.9,0.3,4.6c0,1.5-0.1,2.6-0.2,3.4l0.5,23.9l-17.6,0.9v-2.4
			c-2.9,1.2-5.8,1.8-8.7,1.8c-2.2,0-4.3-0.3-6.3-1c-2-0.7-3.7-1.6-5.1-2.7c-2.3-1.9-4.1-4.5-5.4-7.8c-1.3-3.3-2-6.7-2-10.4
			c0-6.3,1.8-11.3,5.4-15.2c3.1-3.3,6.3-5.8,9.7-7.5c3.3-1.7,6.7-2.5,10.2-2.5c1,0,1.7,0,2.2,0.1L457.9,49.6z M458.2,87.6
			c-1.4,0.2-2.8,0.6-4.2,1.4c-1.4,0.7-2.6,1.6-3.6,2.6c-1,1-1.8,2.1-2.3,3.3c-0.6,1.2-0.8,2.4-0.8,3.5c0,2.4,1.1,4.3,3.4,5.8
			c2,1.3,4,2,6,2c0.4,0,0.9-0.1,1.6-0.2v-8.3c-0.7,0-1.3-0.2-1.9-0.5c-0.8-0.6-1.2-1.8-1.2-3.6C455.2,90.9,456.2,88.9,458.2,87.6z"
			/>
		<path class="st1" d="M518.4,87.7l-13.8,9c-0.7-1.7-1.6-3.2-2.7-4.5c-1.1-1.2-2.3-1.9-3.5-1.9c-1.7,0-3.2,1.4-4.3,4.1
			c-1.1,2.6-1.7,7.2-1.7,13.7c0,4.6,0.2,9.9,0.7,16.1l-19.2,2.2c-1.1-8-1.7-15.2-1.7-21.5c0-1,0.1-2.5,0.2-4.3l-0.7-22.8l15.4-1.9
			l2.2,2.6c1.8-0.6,3.5-1.2,5.1-1.6c1.5-0.4,3-0.8,4.4-1.1c1.4-0.3,2.7-0.4,3.9-0.4c2.6,0,4.8,0.6,6.8,1.8c2.5,1.4,4.4,2.8,5.9,4.3
			S517.7,85,518.4,87.7z"/>
		<path class="st1" d="M517.9,77.2l19.2,2.2c-0.5,6.2-0.7,11.3-0.7,15.3c0,2,0.1,3.7,0.2,5.2c0.1,1.5,0.3,2.8,0.6,4
			c0.3,1.2,0.6,2.2,0.9,3.1c1.6,3.7,3.1,5.6,4.5,5.6c1,0,2.1-1.3,3.2-4c0.7-1.8,1.4-3.7,2-5.4c0.6-1.8,1-3.5,1.3-5.1
			c0.3-1.6,0.5-3.4,0.7-5.3c0.2-1.9,0.2-4,0.2-6.3c0-2.3,0-4.1-0.1-5.4l16.3,1c0.9,5.4,1.4,8.6,1.5,9.7c0.2,1.1,0.2,2.5,0.2,4.2
			c0,2.8-0.7,7.1-2.1,12.7c-0.7,2.8-2.2,5.8-4.5,8.9c-2.3,3.1-4.6,5.3-6.7,6.6c-3.4,1.9-7.3,2.9-11.8,2.9c-3.1,0-6.2-0.4-9.1-1.3
			c-3-0.9-5.7-2.2-8.1-3.9c-2.3-1.6-4.2-3.7-5.6-6.3c-1.4-2.6-2.4-5.4-2.9-8.5c-0.5-3.1-0.8-6.5-0.8-10.2c0-2.2,0.1-4.4,0.2-6.5
			c0.1-2.1,0.3-4.2,0.6-6.4C517.3,81.5,517.5,79.3,517.9,77.2z"/>
		<path class="st1" d="M581.2,80.7c2.9-0.9,5.4-1.7,7.5-2.1c2.1-0.5,4.1-0.7,6-0.7c2.6,0,4.8,0.6,6.7,1.7c2.3,1.3,4.8,3.6,7.5,6.8
			c2.7,3.2,4.3,6.2,5,8.9c1.4,5.5,2.1,10.4,2.1,14.5c0,2.2-0.1,4.5-0.4,6.9c-0.3,2.4-0.7,5.5-1.3,9.3l-16.3,1
			c0.1-1.3,0.1-3.2,0.1-5.6c0-10.2-1.4-18.9-4.2-26.1c-1.1-2.7-2.2-4-3.2-4c-1.4,0-2.9,1.9-4.5,5.6c-0.4,0.9-0.7,2-1,3.1
			c-0.2,1.2-0.4,2.5-0.5,3.9c-0.1,1.5-0.2,3.2-0.2,5.2c0,4,0.2,9.1,0.7,15.3l-19.2,2.2c-0.3-2.3-0.6-4.6-0.9-6.8
			c-0.3-2.3-0.5-4.4-0.6-6.3c-0.1-1.9-0.2-4-0.2-6.3c0-1,0.1-2.4,0.2-4.2l-0.7-22.8l15.4-2L581.2,80.7z"/>
		<path class="st1" d="M656.1,96c-0.8-0.3-2.7-0.9-5.7-1.8c-3-0.9-5.7-1.7-8-2.4c-2.4-0.7-5-1.3-7.8-2c-2.8-0.6-5.1-0.9-6.6-0.9
			c-0.8,0-1.5,0.1-1.9,0.4c-1.3,1-1.9,1.8-1.9,2.7c0,1.3,1.3,2.4,3.8,3.3c2.6,0.9,5.7,1.6,9.3,2.1c5,0.5,9,1.7,12.1,3.5
			s5.3,3.9,6.7,6.3c1.4,2.4,2.1,4.8,2.1,7.3c0,1.8-0.4,3.4-1.1,5c-3,6.4-8.8,9.6-17.4,9.6c-2.3,0-5-0.3-7.9-0.8
			c-2.9-0.5-5.8-1.1-8.5-1.9s-5.6-1.6-8.6-2.6c-3-1-5.9-1.9-8.5-2.8c0.7-1.4,1.5-3.1,2.6-5.1c1-2,2.1-3.9,3-5.8
			c1-1.9,1.5-2.9,1.5-3.1c0.8,0.7,1.7,1.3,2.8,1.7s2.8,0.9,5,1.5c2.2,0.6,3.8,1.1,5,1.6c2.5,0.9,5.1,1.4,7.9,1.4
			c1.7,0,3.3-0.2,4.8-0.5c1.5-0.4,2.3-0.6,2.4-0.9c0-0.7-1.2-1.3-3.5-2s-4.9-1.2-7.7-1.5c-3.2-0.4-6.5-1.2-9.7-2.4
			c-3.3-1.2-6-3-8.3-5.3s-3.4-5.2-3.4-8.7c0-2.6,0.7-5.4,2-8.2c1.5-3.2,3.6-5.5,6.6-7c2.9-1.4,6.4-2.2,10.5-2.2
			c4.7,0,9.5,0.7,14.5,2c5,1.3,11.7,3.4,20.3,6.2c-0.2,0.4-0.9,2.1-2.1,5s-2.2,5.1-2.8,6.4C656.6,95.4,656.2,96,656.1,96z"/>
		<path d="M48.4,136.7l-3.2-58.9l-5.5,1l1-18.6l47.3-7.1l1,17l-26.9,4.5l0.6,12.2L83,83.6l1,14.1l-20.5,3.8l2.2,35.2
			c-0.9,0.1-2.5,0.3-4.7,0.5c-2.2,0.2-4.2,0.3-6.1,0.3C52,137.6,49.8,137.3,48.4,136.7z"/>
		<path d="M117.2,91.1c-0.9,0.9-2,1.9-3,2.9c-1.1,1-1.8,1.7-2.2,2l5.1,28.5l-13.4,3.5l-8-50.9c-0.2,0-0.4,0.2-0.9,0.7s-1,1.1-1.7,2
			c-0.7,0.9-1.1,1.3-1.2,1.4c-0.1,0-0.3-0.6-0.8-1.7c-0.4-1.1-1-2.7-1.7-4.7c-0.7-2-1.5-4.2-2.4-6.6c-0.9-2.4-1.5-4-1.8-4.6
			c3.2-1,6.1-2,8.9-2.9c2.8-0.9,5.7-1.7,8.8-2.5c3.1-0.8,6-1.4,8.8-1.9c2.8-0.5,5.6-0.7,8.3-0.7c2.1,0,4,0.2,5.8,0.5
			c1.8,0.3,3.4,0.9,5,1.6c1.6,0.8,3,1.8,4.2,3c1.2,1.3,2.2,2.8,3,4.5c0.3,0.5,0.4,1.2,0.4,2c0,1.3-0.4,2.7-1.2,4.2
			c-0.8,1.5-1.8,3.1-3,4.8c-1.3,1.7-2.7,3.5-4.2,5.3c1.4,0.2,2.8,1.2,4.1,3.1c1.3,1.9,2.3,4.2,2.9,6.8l6.7,34.6l-11.8,2.6L123.2,97
			c-0.2-0.4-0.5-1.1-0.9-2c-0.4-0.9-1-1.8-1.8-2.7c-0.8-0.9-1.6-1.3-2.4-1.3C117.9,91,117.6,91,117.2,91.1z M107.8,73.3l2.2,11.5
			c1.7-0.4,3.6-1.8,5.8-4.5c2.1-2.6,3.2-4.7,3.2-6.3c0-0.8-0.3-1.3-0.9-1.4c-2.7-0.7-4.4-1-5.4-1C111,71.7,109.4,72.2,107.8,73.3z"
			/>
		<path d="M156.8,120.7l41,1.9l-0.3,17l-57-2.9l-3.5-67.9l-5.7,1.3l1.9-9.6l19.8-8.3L156.8,120.7z"/>
		<path d="M209.7,102.1l-2.9-1.3l4.5-10.2l22.1,8.3l-5.1,43.2l-19.8-1.6c0.7-2.1,1.7-5.2,3-9.2c1.3-4,2.1-6.6,2.5-7.8
			c-1.7,0.8-5.1,1.3-10.2,1.3c-4.9,0-9.3-0.9-13-2.8c-3.7-1.9-6.8-5.1-9.2-9.6c-2.4-4.5-3.9-10.6-4.4-18.3c-0.1-0.8-0.1-1.9-0.1-3.4
			c0-3.9,0.4-7.6,1.3-11.1c0.9-3.5,2.4-6.7,4.4-9.6c2-2.9,4.9-5.2,8.5-7s7.9-2.7,13-2.8c3.4,0,6.7,0.4,10,1.2c3.3,0.8,6.3,1.9,9,3.3
			c2.7,1.4,5.1,3.2,7.1,5.2c2,2,3.2,4.2,3.8,6.6l-17.5,11.4c-1.2-2.9-5.1-4.4-11.8-4.4c-1.5,0-3.1,1.1-4.6,3.2
			c-1.6,2.2-2.4,4.6-2.4,7.3c0.1,2.1,0.7,4,1.8,5.9c1.1,1.9,3,2.9,5.8,3c0.2,0,0.6-0.1,1.2-0.2c0.6-0.1,1.1-0.3,1.6-0.4
			C208.8,102.3,209.3,102.2,209.7,102.1z"/>
		<path d="M266.7,65.3c2.9-6.2,9-9.3,18.2-9.3c4.9,0,10,0.7,15.4,2.1s11.8,3.2,19.2,5.6c-0.6,1.3-1.8,4.6-3.7,9.8
			c-1.9,5.2-2.9,7.8-3,7.8c-0.2-0.2-1.4-0.9-3.6-2.1c-2.2-1.2-4.5-2.3-7.1-3.4c-2.6-1.1-4.7-1.7-6.3-1.9c-0.7-0.1-2.4-0.5-5.1-1.2
			c-2.7-0.7-4.7-1.1-6-1.1c-1.2,0-2.1,0.2-2.7,0.7c-1.1,0.8-1.6,1.6-1.6,2.7c0,0.9,0.4,2,1.3,3.1c0.9,1.1,2,2.2,3.5,3.3
			c1.4,1.1,3,2.2,4.8,3.2c1.7,1,3.5,2,5.2,2.8c3.5,1.7,6.5,3.7,9.1,5.9c2.6,2.2,4.6,4.4,6,6.6c1.4,2.2,2.5,4.4,3.1,6.7
			c0.7,2.3,1,4.4,1,6.4c0,2.4-0.4,4.5-1.3,6.5c-1.6,3.4-3.9,5.8-7,7.3c-3.1,1.5-6.7,2.3-11,2.3c-2.4,0-5.2-0.3-8.3-0.8
			c-3.1-0.5-6-1.1-8.9-1.9s-5.9-1.7-9-2.7c-3.2-1-5.9-1.9-8.3-2.7c0.4-0.8,1-2.4,1.9-4.8c0.9-2.4,1.6-4.4,2.2-6.2
			c0.6-1.7,1.2-3.3,1.7-4.6s0.8-2,0.9-2c0.7,0.6,3.2,1.9,7.3,3.9c4.2,2,7.4,3.2,9.6,3.4c0.8,0.1,2.3,0.4,4.3,0.9
			c2,0.5,3.4,0.9,4.1,1.1c0.7,0.2,1.6,0.3,2.6,0.3c1.2,0,2.1-0.2,2.7-0.7c1.2-0.9,1.8-1.8,1.8-2.7c0-2.1-2.7-4.6-8.2-7.5
			c-3.3-1.7-7-4.2-11.1-7.3c-4.1-3.1-7.6-6.8-10.7-10.9c-3.1-4.1-4.6-8.2-4.6-12.4C265.2,69.4,265.7,67.4,266.7,65.3z"/>
		<path d="M329.2,127.3l1.9,31.4l-17.6,0.9l-2.7-50.7v-0.4c-0.1-1.3-0.2-2.3-0.2-2.9L310,91.9l-5.8,1.3l1.9-9.6l19.8-8.3l0.5,7.2
			c3.1-1.5,6.2-2.2,9.4-2.2c3.9,0,7.8,1.1,11.8,3.3c1.8,1,3.4,2.3,4.5,4c1.2,1.7,2,3.6,2.5,5.7c0.5,2.1,0.8,4.3,0.8,6.5
			c0,1.9-0.2,3.7-0.4,5.4c-0.3,1.7-0.7,3.3-1.2,4.8c-0.5,1.5-1.1,2.7-1.8,3.7c-2.2,3.3-4.6,5.9-7.1,8s-5.2,3.5-7.8,4.4
			C334.5,126.9,331.9,127.3,329.2,127.3z M327.4,96.8c0,1.5,0.3,2.9,1,4.3c0.7,1.4,1.4,2.4,2.2,2.9c2.1,1.3,4.1,2,5.9,2
			c1.8,0,3.5-0.6,4.9-1.9c1.4-1.2,2.5-2.8,3.3-4.8c0.8-1.9,1.1-3.9,1.1-5.8c0-1.3-0.2-2.5-0.5-3.6c-0.4,2-1.4,3.7-2.9,5.2
			c-1.5,1.5-2.9,2.3-4.3,2.3c-0.7,0-1.3-0.2-1.9-0.5c-0.8-0.6-1.2-1.7-1.2-3.3c0-1.2,0.4-2.4,1.2-3.6c0.8-1.2,2.1-2.1,3.8-2.8
			c-2.1,0-4.1,0.4-5.9,1.3s-3.3,2.1-4.6,3.6C328.5,93.8,327.7,95.3,327.4,96.8z"/>
		<path d="M388.3,104.2l9.4,11.4c-0.8,2.2-2.5,4.2-5.4,6c-2.8,1.8-6.2,3.3-10.1,4.3c-3.9,1.1-7.8,1.6-11.7,1.6
			c-3.4,0-6.5-0.5-9.2-1.4s-4.8-2.3-6.2-4.1c-2.5-3.2-3.8-7.2-3.8-12.2c0-3.9,0.7-7.8,2.1-11.5s2.9-6.4,4.5-7.9
			c1.9-1.8,4-3.3,6.2-4.5c2.2-1.2,4.5-2.1,6.9-2.7c2.4-0.6,4.9-0.9,7.4-0.9c3.3,0,6.5,0.5,9.4,1.6c3,1.1,5.6,2.6,7.8,4.6L374.3,114
			c1.9,0,3.7-0.4,5.4-1.2c1.7-0.8,3.3-1.9,4.7-3.4C385.9,107.9,387.2,106.2,388.3,104.2z M377.5,95.1c-1.3-0.7-2.6-1-3.9-1
			c-1.4,0-2.8,0.3-4.1,0.9c-1.3,0.6-2.2,1.3-2.8,2c-1.6,2.1-2.4,4.4-2.4,6.9c0,0.9,0.1,1.8,0.3,2.6c0.2,0.8,0.5,2,0.9,3.4
			L377.5,95.1z"/>
		<path d="M428.3,104.2l9.4,11.4c-0.8,2.2-2.5,4.2-5.4,6c-2.8,1.8-6.2,3.3-10.1,4.3c-3.9,1.1-7.8,1.6-11.7,1.6
			c-3.4,0-6.5-0.5-9.2-1.4s-4.8-2.3-6.2-4.1c-2.5-3.2-3.8-7.2-3.8-12.2c0-3.9,0.7-7.8,2.1-11.5s2.9-6.4,4.5-7.9
			c1.9-1.8,4-3.3,6.2-4.5c2.2-1.2,4.5-2.1,6.9-2.7c2.4-0.6,4.9-0.9,7.4-0.9c3.3,0,6.5,0.5,9.4,1.6c3,1.1,5.6,2.6,7.8,4.6L414.3,114
			c1.9,0,3.7-0.4,5.4-1.2c1.7-0.8,3.3-1.9,4.7-3.4C425.9,107.9,427.2,106.2,428.3,104.2z M417.5,95.1c-1.3-0.7-2.6-1-3.9-1
			c-1.4,0-2.8,0.3-4.1,0.9c-1.3,0.6-2.2,1.3-2.8,2c-1.6,2.1-2.4,4.4-2.4,6.9c0,0.9,0.1,1.8,0.3,2.6c0.2,0.8,0.5,2,0.9,3.4
			L417.5,95.1z"/>
		<path d="M457.9,49.6l16.3-7.3l1,52.9c0.2,1.4,0.3,2.9,0.3,4.6c0,1.5-0.1,2.6-0.2,3.4l0.5,23.9l-17.6,0.9v-2.4
			c-2.9,1.2-5.8,1.8-8.7,1.8c-2.2,0-4.3-0.3-6.3-1c-2-0.7-3.7-1.6-5.1-2.7c-2.3-1.9-4.1-4.5-5.4-7.8c-1.3-3.3-2-6.7-2-10.4
			c0-6.3,1.8-11.3,5.4-15.2c3.1-3.3,6.3-5.8,9.7-7.5c3.3-1.7,6.7-2.5,10.2-2.5c1,0,1.7,0,2.2,0.1L457.9,49.6z M458.2,87.6
			c-1.4,0.2-2.8,0.6-4.2,1.4c-1.4,0.7-2.6,1.6-3.6,2.6c-1,1-1.8,2.1-2.3,3.3c-0.6,1.2-0.8,2.4-0.8,3.5c0,2.4,1.1,4.3,3.4,5.8
			c2,1.3,4,2,6,2c0.4,0,0.9-0.1,1.6-0.2v-8.3c-0.7,0-1.3-0.2-1.9-0.5c-0.8-0.6-1.2-1.8-1.2-3.6C455.2,90.9,456.2,88.9,458.2,87.6z"
			/>
		<path d="M518.4,87.7l-13.8,9c-0.7-1.7-1.6-3.2-2.7-4.5c-1.1-1.2-2.3-1.9-3.5-1.9c-1.7,0-3.2,1.4-4.3,4.1
			c-1.1,2.6-1.7,7.2-1.7,13.7c0,4.6,0.2,9.9,0.7,16.1l-19.2,2.2c-1.1-8-1.7-15.2-1.7-21.5c0-1,0.1-2.5,0.2-4.3l-0.7-22.8l15.4-1.9
			l2.2,2.6c1.8-0.6,3.5-1.2,5.1-1.6c1.5-0.4,3-0.8,4.4-1.1c1.4-0.3,2.7-0.4,3.9-0.4c2.6,0,4.8,0.6,6.8,1.8c2.5,1.4,4.4,2.8,5.9,4.3
			S517.7,85,518.4,87.7z"/>
		<path d="M517.9,77.2l19.2,2.2c-0.5,6.2-0.7,11.3-0.7,15.3c0,2,0.1,3.7,0.2,5.2c0.1,1.5,0.3,2.8,0.6,4c0.3,1.2,0.6,2.2,0.9,3.1
			c1.6,3.7,3.1,5.6,4.5,5.6c1,0,2.1-1.3,3.2-4c0.7-1.8,1.4-3.7,2-5.4c0.6-1.8,1-3.5,1.3-5.1c0.3-1.6,0.5-3.4,0.7-5.3
			c0.2-1.9,0.2-4,0.2-6.3c0-2.3,0-4.1-0.1-5.4l16.3,1c0.9,5.4,1.4,8.6,1.5,9.7c0.2,1.1,0.2,2.5,0.2,4.2c0,2.8-0.7,7.1-2.1,12.7
			c-0.7,2.8-2.2,5.8-4.5,8.9c-2.3,3.1-4.6,5.3-6.7,6.6c-3.4,1.9-7.3,2.9-11.8,2.9c-3.1,0-6.2-0.4-9.1-1.3c-3-0.9-5.7-2.2-8.1-3.9
			c-2.3-1.6-4.2-3.7-5.6-6.3c-1.4-2.6-2.4-5.4-2.9-8.5c-0.5-3.1-0.8-6.5-0.8-10.2c0-2.2,0.1-4.4,0.2-6.5c0.1-2.1,0.3-4.2,0.6-6.4
			C517.3,81.5,517.5,79.3,517.9,77.2z"/>
		<path d="M581.2,80.7c2.9-0.9,5.4-1.7,7.5-2.1c2.1-0.5,4.1-0.7,6-0.7c2.6,0,4.8,0.6,6.7,1.7c2.3,1.3,4.8,3.6,7.5,6.8
			c2.7,3.2,4.3,6.2,5,8.9c1.4,5.5,2.1,10.4,2.1,14.5c0,2.2-0.1,4.5-0.4,6.9c-0.3,2.4-0.7,5.5-1.3,9.3l-16.3,1
			c0.1-1.3,0.1-3.2,0.1-5.6c0-10.2-1.4-18.9-4.2-26.1c-1.1-2.7-2.2-4-3.2-4c-1.4,0-2.9,1.9-4.5,5.6c-0.4,0.9-0.7,2-1,3.1
			c-0.2,1.2-0.4,2.5-0.5,3.9c-0.1,1.5-0.2,3.2-0.2,5.2c0,4,0.2,9.1,0.7,15.3l-19.2,2.2c-0.3-2.3-0.6-4.6-0.9-6.8
			c-0.3-2.3-0.5-4.4-0.6-6.3c-0.1-1.9-0.2-4-0.2-6.3c0-1,0.1-2.4,0.2-4.2l-0.7-22.8l15.4-2L581.2,80.7z"/>
		<path d="M656.1,96c-0.8-0.3-2.7-0.9-5.7-1.8c-3-0.9-5.7-1.7-8-2.4c-2.4-0.7-5-1.3-7.8-2c-2.8-0.6-5.1-0.9-6.6-0.9
			c-0.8,0-1.5,0.1-1.9,0.4c-1.3,1-1.9,1.8-1.9,2.7c0,1.3,1.3,2.4,3.8,3.3c2.6,0.9,5.7,1.6,9.3,2.1c5,0.5,9,1.7,12.1,3.5
			s5.3,3.9,6.7,6.3c1.4,2.4,2.1,4.8,2.1,7.3c0,1.8-0.4,3.4-1.1,5c-3,6.4-8.8,9.6-17.4,9.6c-2.3,0-5-0.3-7.9-0.8
			c-2.9-0.5-5.8-1.1-8.5-1.9s-5.6-1.6-8.6-2.6c-3-1-5.9-1.9-8.5-2.8c0.7-1.4,1.5-3.1,2.6-5.1c1-2,2.1-3.9,3-5.8
			c1-1.9,1.5-2.9,1.5-3.1c0.8,0.7,1.7,1.3,2.8,1.7s2.8,0.9,5,1.5c2.2,0.6,3.8,1.1,5,1.6c2.5,0.9,5.1,1.4,7.9,1.4
			c1.7,0,3.3-0.2,4.8-0.5c1.5-0.4,2.3-0.6,2.4-0.9c0-0.7-1.2-1.3-3.5-2s-4.9-1.2-7.7-1.5c-3.2-0.4-6.5-1.2-9.7-2.4
			c-3.3-1.2-6-3-8.3-5.3s-3.4-5.2-3.4-8.7c0-2.6,0.7-5.4,2-8.2c1.5-3.2,3.6-5.5,6.6-7c2.9-1.4,6.4-2.2,10.5-2.2
			c4.7,0,9.5,0.7,14.5,2c5,1.3,11.7,3.4,20.3,6.2c-0.2,0.4-0.9,2.1-2.1,5s-2.2,5.1-2.8,6.4C656.6,95.4,656.2,96,656.1,96z"/>
	</g>
	<g>
		<g>
			<path class="st2" d="M47.4,133.7l-3.2-58.9l-5.5,1l1-18.6l47.3-7.1l1,17l-26.9,4.5l0.6,12.2L82,80.6l1,14.1l-20.5,3.8l2.2,35.2
				c-0.9,0.1-2.5,0.3-4.7,0.5c-2.2,0.2-4.2,0.3-6.1,0.3C51,134.6,48.8,134.3,47.4,133.7z"/>
			<path class="st2" d="M116.2,88.1c-0.9,0.9-2,1.9-3,2.9c-1.1,1-1.8,1.7-2.2,2l5.1,28.5l-13.4,3.5l-8-50.9c-0.2,0-0.4,0.2-0.9,0.7
				s-1,1.1-1.7,2c-0.7,0.9-1.1,1.3-1.2,1.4c-0.1,0-0.3-0.6-0.8-1.7c-0.4-1.1-1-2.7-1.7-4.7c-0.7-2-1.5-4.2-2.4-6.6
				c-0.9-2.4-1.5-4-1.8-4.6c3.2-1,6.1-2,8.9-2.9c2.8-0.9,5.7-1.7,8.8-2.5c3.1-0.8,6-1.4,8.8-1.9c2.8-0.5,5.6-0.7,8.3-0.7
				c2.1,0,4,0.2,5.8,0.5c1.8,0.3,3.4,0.9,5,1.6c1.6,0.8,3,1.8,4.2,3c1.2,1.3,2.2,2.8,3,4.5c0.3,0.5,0.4,1.2,0.4,2
				c0,1.3-0.4,2.7-1.2,4.2c-0.8,1.5-1.8,3.1-3,4.8c-1.3,1.7-2.7,3.5-4.2,5.3c1.4,0.2,2.8,1.2,4.1,3.1c1.3,1.9,2.3,4.2,2.9,6.8
				l6.7,34.6l-11.8,2.6L122.2,94c-0.2-0.4-0.5-1.1-0.9-2c-0.4-0.9-1-1.8-1.8-2.7c-0.8-0.9-1.6-1.3-2.4-1.3
				C116.9,88,116.6,88,116.2,88.1z M106.8,70.3l2.2,11.5c1.7-0.4,3.6-1.8,5.8-4.5c2.1-2.6,3.2-4.7,3.2-6.3c0-0.8-0.3-1.3-0.9-1.4
				c-2.7-0.7-4.4-1-5.4-1C110,68.7,108.4,69.2,106.8,70.3z"/>
			<path class="st2" d="M155.8,117.7l41,1.9l-0.3,17l-57-2.9l-3.5-67.9l-5.7,1.3l1.9-9.6l19.8-8.3L155.8,117.7z"/>
			<path class="st2" d="M208.7,99.1l-2.9-1.3l4.5-10.2l22.1,8.3l-5.1,43.2l-19.8-1.6c0.7-2.1,1.7-5.2,3-9.2c1.3-4,2.1-6.6,2.5-7.8
				c-1.7,0.8-5.1,1.3-10.2,1.3c-4.9,0-9.3-0.9-13-2.8c-3.7-1.9-6.8-5.1-9.2-9.6c-2.4-4.5-3.9-10.6-4.4-18.3
				c-0.1-0.8-0.1-1.9-0.1-3.4c0-3.9,0.4-7.6,1.3-11.1c0.9-3.5,2.4-6.7,4.4-9.6c2-2.9,4.9-5.2,8.5-7s7.9-2.7,13-2.8
				c3.4,0,6.7,0.4,10,1.2c3.3,0.8,6.3,1.9,9,3.3c2.7,1.4,5.1,3.2,7.1,5.2c2,2,3.2,4.2,3.8,6.6l-17.5,11.4c-1.2-2.9-5.1-4.4-11.8-4.4
				c-1.5,0-3.1,1.1-4.6,3.2c-1.6,2.2-2.4,4.6-2.4,7.3c0.1,2.1,0.7,4,1.8,5.9c1.1,1.9,3,2.9,5.8,3c0.2,0,0.6-0.1,1.2-0.2
				c0.6-0.1,1.1-0.3,1.6-0.4C207.8,99.3,208.3,99.2,208.7,99.1z"/>
			<path class="st2" d="M265.7,62.3c2.9-6.2,9-9.3,18.2-9.3c4.9,0,10,0.7,15.4,2.1s11.8,3.2,19.2,5.6c-0.6,1.3-1.8,4.6-3.7,9.8
				c-1.9,5.2-2.9,7.8-3,7.8c-0.2-0.2-1.4-0.9-3.6-2.1c-2.2-1.2-4.5-2.3-7.1-3.4c-2.6-1.1-4.7-1.7-6.3-1.9c-0.7-0.1-2.4-0.5-5.1-1.2
				c-2.7-0.7-4.7-1.1-6-1.1c-1.2,0-2.1,0.2-2.7,0.7c-1.1,0.8-1.6,1.6-1.6,2.7c0,0.9,0.4,2,1.3,3.1c0.9,1.1,2,2.2,3.5,3.3
				c1.4,1.1,3,2.2,4.8,3.2c1.7,1,3.5,2,5.2,2.8c3.5,1.7,6.5,3.7,9.1,5.9c2.6,2.2,4.6,4.4,6,6.6c1.4,2.2,2.5,4.4,3.1,6.7
				c0.7,2.3,1,4.4,1,6.4c0,2.4-0.4,4.5-1.3,6.5c-1.6,3.4-3.9,5.8-7,7.3c-3.1,1.5-6.7,2.3-11,2.3c-2.4,0-5.2-0.3-8.3-0.8
				c-3.1-0.5-6-1.1-8.9-1.9s-5.9-1.7-9-2.7c-3.2-1-5.9-1.9-8.3-2.7c0.4-0.8,1-2.4,1.9-4.8c0.9-2.4,1.6-4.4,2.2-6.2
				c0.6-1.7,1.2-3.3,1.7-4.6s0.8-2,0.9-2c0.7,0.6,3.2,1.9,7.3,3.9c4.2,2,7.4,3.2,9.6,3.4c0.8,0.1,2.3,0.4,4.3,0.9
				c2,0.5,3.4,0.9,4.1,1.1c0.7,0.2,1.6,0.3,2.6,0.3c1.2,0,2.1-0.2,2.7-0.7c1.2-0.9,1.8-1.8,1.8-2.7c0-2.1-2.7-4.6-8.2-7.5
				c-3.3-1.7-7-4.2-11.1-7.3c-4.1-3.1-7.6-6.8-10.7-10.9c-3.1-4.1-4.6-8.2-4.6-12.4C264.2,66.4,264.7,64.4,265.7,62.3z"/>
			<path class="st2" d="M328.2,124.3l1.9,31.4l-17.6,0.9l-2.7-50.7v-0.4c-0.1-1.3-0.2-2.3-0.2-2.9L309,88.9l-5.8,1.3l1.9-9.6
				l19.8-8.3l0.5,7.2c3.1-1.5,6.2-2.2,9.4-2.2c3.9,0,7.8,1.1,11.8,3.3c1.8,1,3.4,2.3,4.5,4c1.2,1.7,2,3.6,2.5,5.7
				c0.5,2.1,0.8,4.3,0.8,6.5c0,1.9-0.2,3.7-0.4,5.4c-0.3,1.7-0.7,3.3-1.2,4.8c-0.5,1.5-1.1,2.7-1.8,3.7c-2.2,3.3-4.6,5.9-7.1,8
				s-5.2,3.5-7.8,4.4C333.5,123.9,330.9,124.3,328.2,124.3z M326.4,93.8c0,1.5,0.3,2.9,1,4.3c0.7,1.4,1.4,2.4,2.2,2.9
				c2.1,1.3,4.1,2,5.9,2c1.8,0,3.5-0.6,4.9-1.9c1.4-1.2,2.5-2.8,3.3-4.8c0.8-1.9,1.1-3.9,1.1-5.8c0-1.3-0.2-2.5-0.5-3.6
				c-0.4,2-1.4,3.7-2.9,5.2c-1.5,1.5-2.9,2.3-4.3,2.3c-0.7,0-1.3-0.2-1.9-0.5c-0.8-0.6-1.2-1.7-1.2-3.3c0-1.2,0.4-2.4,1.2-3.6
				c0.8-1.2,2.1-2.1,3.8-2.8c-2.1,0-4.1,0.4-5.9,1.3s-3.3,2.1-4.6,3.6C327.5,90.8,326.7,92.3,326.4,93.8z"/>
			<path class="st2" d="M387.3,101.2l9.4,11.4c-0.8,2.2-2.5,4.2-5.4,6c-2.8,1.8-6.2,3.3-10.1,4.3c-3.9,1.1-7.8,1.6-11.7,1.6
				c-3.4,0-6.5-0.5-9.2-1.4s-4.8-2.3-6.2-4.1c-2.5-3.2-3.8-7.2-3.8-12.2c0-3.9,0.7-7.8,2.1-11.5s2.9-6.4,4.5-7.9
				c1.9-1.8,4-3.3,6.2-4.5c2.2-1.2,4.5-2.1,6.9-2.7c2.4-0.6,4.9-0.9,7.4-0.9c3.3,0,6.5,0.5,9.4,1.6c3,1.1,5.6,2.6,7.8,4.6L373.3,111
				c1.9,0,3.7-0.4,5.4-1.2c1.7-0.8,3.3-1.9,4.7-3.4C384.9,104.9,386.2,103.2,387.3,101.2z M376.5,92.1c-1.3-0.7-2.6-1-3.9-1
				c-1.4,0-2.8,0.3-4.1,0.9c-1.3,0.6-2.2,1.3-2.8,2c-1.6,2.1-2.4,4.4-2.4,6.9c0,0.9,0.1,1.8,0.3,2.6c0.2,0.8,0.5,2,0.9,3.4
				L376.5,92.1z"/>
			<path class="st2" d="M427.3,101.2l9.4,11.4c-0.8,2.2-2.5,4.2-5.4,6c-2.8,1.8-6.2,3.3-10.1,4.3c-3.9,1.1-7.8,1.6-11.7,1.6
				c-3.4,0-6.5-0.5-9.2-1.4s-4.8-2.3-6.2-4.1c-2.5-3.2-3.8-7.2-3.8-12.2c0-3.9,0.7-7.8,2.1-11.5s2.9-6.4,4.5-7.9
				c1.9-1.8,4-3.3,6.2-4.5c2.2-1.2,4.5-2.1,6.9-2.7c2.4-0.6,4.9-0.9,7.4-0.9c3.3,0,6.5,0.5,9.4,1.6c3,1.1,5.6,2.6,7.8,4.6L413.3,111
				c1.9,0,3.7-0.4,5.4-1.2c1.7-0.8,3.3-1.9,4.7-3.4C424.9,104.9,426.2,103.2,427.3,101.2z M416.5,92.1c-1.3-0.7-2.6-1-3.9-1
				c-1.4,0-2.8,0.3-4.1,0.9c-1.3,0.6-2.2,1.3-2.8,2c-1.6,2.1-2.4,4.4-2.4,6.9c0,0.9,0.1,1.8,0.3,2.6c0.2,0.8,0.5,2,0.9,3.4
				L416.5,92.1z"/>
			<path class="st2" d="M456.9,46.6l16.3-7.3l1,52.9c0.2,1.4,0.3,2.9,0.3,4.6c0,1.5-0.1,2.6-0.2,3.4l0.5,23.9l-17.6,0.9v-2.4
				c-2.9,1.2-5.8,1.8-8.7,1.8c-2.2,0-4.3-0.3-6.3-1c-2-0.7-3.7-1.6-5.1-2.7c-2.3-1.9-4.1-4.5-5.4-7.8c-1.3-3.3-2-6.7-2-10.4
				c0-6.3,1.8-11.3,5.4-15.2c3.1-3.3,6.3-5.8,9.7-7.5c3.3-1.7,6.7-2.5,10.2-2.5c1,0,1.7,0,2.2,0.1L456.9,46.6z M457.2,84.6
				c-1.4,0.2-2.8,0.6-4.2,1.4c-1.4,0.7-2.6,1.6-3.6,2.6c-1,1-1.8,2.1-2.3,3.3c-0.6,1.2-0.8,2.4-0.8,3.5c0,2.4,1.1,4.3,3.4,5.8
				c2,1.3,4,2,6,2c0.4,0,0.9-0.1,1.6-0.2v-8.3c-0.7,0-1.3-0.2-1.9-0.5c-0.8-0.6-1.2-1.8-1.2-3.6C454.2,87.9,455.2,85.9,457.2,84.6z"
				/>
			<path class="st2" d="M517.4,84.7l-13.8,9c-0.7-1.7-1.6-3.2-2.7-4.5c-1.1-1.2-2.3-1.9-3.5-1.9c-1.7,0-3.2,1.4-4.3,4.1
				c-1.1,2.6-1.7,7.2-1.7,13.7c0,4.6,0.2,9.9,0.7,16.1l-19.2,2.2c-1.1-8-1.7-15.2-1.7-21.5c0-1,0.1-2.5,0.2-4.3l-0.7-22.8l15.4-1.9
				l2.2,2.6c1.8-0.6,3.5-1.2,5.1-1.6c1.5-0.4,3-0.8,4.4-1.1c1.4-0.3,2.7-0.4,3.9-0.4c2.6,0,4.8,0.6,6.8,1.8c2.5,1.4,4.4,2.8,5.9,4.3
				S516.7,82,517.4,84.7z"/>
			<path class="st2" d="M516.9,74.2l19.2,2.2c-0.5,6.2-0.7,11.3-0.7,15.3c0,2,0.1,3.7,0.2,5.2c0.1,1.5,0.3,2.8,0.6,4
				c0.3,1.2,0.6,2.2,0.9,3.1c1.6,3.7,3.1,5.6,4.5,5.6c1,0,2.1-1.3,3.2-4c0.7-1.8,1.4-3.7,2-5.4c0.6-1.8,1-3.5,1.3-5.1
				c0.3-1.6,0.5-3.4,0.7-5.3c0.2-1.9,0.2-4,0.2-6.3c0-2.3,0-4.1-0.1-5.4l16.3,1c0.9,5.4,1.4,8.6,1.5,9.7c0.2,1.1,0.2,2.5,0.2,4.2
				c0,2.8-0.7,7.1-2.1,12.7c-0.7,2.8-2.2,5.8-4.5,8.9c-2.3,3.1-4.6,5.3-6.7,6.6c-3.4,1.9-7.3,2.9-11.8,2.9c-3.1,0-6.2-0.4-9.1-1.3
				c-3-0.9-5.7-2.2-8.1-3.9c-2.3-1.6-4.2-3.7-5.6-6.3c-1.4-2.6-2.4-5.4-2.9-8.5c-0.5-3.1-0.8-6.5-0.8-10.2c0-2.2,0.1-4.4,0.2-6.5
				c0.1-2.1,0.3-4.2,0.6-6.4C516.3,78.5,516.5,76.3,516.9,74.2z"/>
			<path class="st2" d="M580.2,77.7c2.9-0.9,5.4-1.7,7.5-2.1c2.1-0.5,4.1-0.7,6-0.7c2.6,0,4.8,0.6,6.7,1.7c2.3,1.3,4.8,3.6,7.5,6.8
				c2.7,3.2,4.3,6.2,5,8.9c1.4,5.5,2.1,10.4,2.1,14.5c0,2.2-0.1,4.5-0.4,6.9c-0.3,2.4-0.7,5.5-1.3,9.3l-16.3,1
				c0.1-1.3,0.1-3.2,0.1-5.6c0-10.2-1.4-18.9-4.2-26.1c-1.1-2.7-2.2-4-3.2-4c-1.4,0-2.9,1.9-4.5,5.6c-0.4,0.9-0.7,2-1,3.1
				c-0.2,1.2-0.4,2.5-0.5,3.9c-0.1,1.5-0.2,3.2-0.2,5.2c0,4,0.2,9.1,0.7,15.3l-19.2,2.2c-0.3-2.3-0.6-4.6-0.9-6.8
				c-0.3-2.3-0.5-4.4-0.6-6.3c-0.1-1.9-0.2-4-0.2-6.3c0-1,0.1-2.4,0.2-4.2l-0.7-22.8l15.4-2L580.2,77.7z"/>
			<path class="st2" d="M655.1,93c-0.8-0.3-2.7-0.9-5.7-1.8c-3-0.9-5.7-1.7-8-2.4c-2.4-0.7-5-1.3-7.8-2c-2.8-0.6-5.1-0.9-6.6-0.9
				c-0.8,0-1.5,0.1-1.9,0.4c-1.3,1-1.9,1.8-1.9,2.7c0,1.3,1.3,2.4,3.8,3.3c2.6,0.9,5.7,1.6,9.3,2.1c5,0.5,9,1.7,12.1,3.5
				s5.3,3.9,6.7,6.3c1.4,2.4,2.1,4.8,2.1,7.3c0,1.8-0.4,3.4-1.1,5c-3,6.4-8.8,9.6-17.4,9.6c-2.3,0-5-0.3-7.9-0.8
				c-2.9-0.5-5.8-1.1-8.5-1.9s-5.6-1.6-8.6-2.6c-3-1-5.9-1.9-8.5-2.8c0.7-1.4,1.5-3.1,2.6-5.1c1-2,2.1-3.9,3-5.8
				c1-1.9,1.5-2.9,1.5-3.1c0.8,0.7,1.7,1.3,2.8,1.7s2.8,0.9,5,1.5c2.2,0.6,3.8,1.1,5,1.6c2.5,0.9,5.1,1.4,7.9,1.4
				c1.7,0,3.3-0.2,4.8-0.5c1.5-0.4,2.3-0.6,2.4-0.9c0-0.7-1.2-1.3-3.5-2s-4.9-1.2-7.7-1.5c-3.2-0.4-6.5-1.2-9.7-2.4
				c-3.3-1.2-6-3-8.3-5.3s-3.4-5.2-3.4-8.7c0-2.6,0.7-5.4,2-8.2c1.5-3.2,3.6-5.5,6.6-7c2.9-1.4,6.4-2.2,10.5-2.2
				c4.7,0,9.5,0.7,14.5,2c5,1.3,11.7,3.4,20.3,6.2c-0.2,0.4-0.9,2.1-2.1,5s-2.2,5.1-2.8,6.4C655.6,92.4,655.2,93,655.1,93z"/>
		</g>
		<g>
			<path class="st3" d="M47.4,133.7l-3.2-58.9l-5.5,1l1-18.6l47.3-7.1l1,17l-26.9,4.5l0.6,12.2L82,80.6l1,14.1l-20.5,3.8l2.2,35.2
				c-0.9,0.1-2.5,0.3-4.7,0.5c-2.2,0.2-4.2,0.3-6.1,0.3C51,134.6,48.8,134.3,47.4,133.7z"/>
			<path class="st3" d="M116.2,88.1c-0.9,0.9-2,1.9-3,2.9c-1.1,1-1.8,1.7-2.2,2l5.1,28.5l-13.4,3.5l-8-50.9c-0.2,0-0.4,0.2-0.9,0.7
				s-1,1.1-1.7,2c-0.7,0.9-1.1,1.3-1.2,1.4c-0.1,0-0.3-0.6-0.8-1.7c-0.4-1.1-1-2.7-1.7-4.7c-0.7-2-1.5-4.2-2.4-6.6
				c-0.9-2.4-1.5-4-1.8-4.6c3.2-1,6.1-2,8.9-2.9c2.8-0.9,5.7-1.7,8.8-2.5c3.1-0.8,6-1.4,8.8-1.9c2.8-0.5,5.6-0.7,8.3-0.7
				c2.1,0,4,0.2,5.8,0.5c1.8,0.3,3.4,0.9,5,1.6c1.6,0.8,3,1.8,4.2,3c1.2,1.3,2.2,2.8,3,4.5c0.3,0.5,0.4,1.2,0.4,2
				c0,1.3-0.4,2.7-1.2,4.2c-0.8,1.5-1.8,3.1-3,4.8c-1.3,1.7-2.7,3.5-4.2,5.3c1.4,0.2,2.8,1.2,4.1,3.1c1.3,1.9,2.3,4.2,2.9,6.8
				l6.7,34.6l-11.8,2.6L122.2,94c-0.2-0.4-0.5-1.1-0.9-2c-0.4-0.9-1-1.8-1.8-2.7c-0.8-0.9-1.6-1.3-2.4-1.3
				C116.9,88,116.6,88,116.2,88.1z M106.8,70.3l2.2,11.5c1.7-0.4,3.6-1.8,5.8-4.5c2.1-2.6,3.2-4.7,3.2-6.3c0-0.8-0.3-1.3-0.9-1.4
				c-2.7-0.7-4.4-1-5.4-1C110,68.7,108.4,69.2,106.8,70.3z"/>
			<path class="st3" d="M155.8,117.7l41,1.9l-0.3,17l-57-2.9l-3.5-67.9l-5.7,1.3l1.9-9.6l19.8-8.3L155.8,117.7z"/>
			<path class="st3" d="M208.7,99.1l-2.9-1.3l4.5-10.2l22.1,8.3l-5.1,43.2l-19.8-1.6c0.7-2.1,1.7-5.2,3-9.2c1.3-4,2.1-6.6,2.5-7.8
				c-1.7,0.8-5.1,1.3-10.2,1.3c-4.9,0-9.3-0.9-13-2.8c-3.7-1.9-6.8-5.1-9.2-9.6c-2.4-4.5-3.9-10.6-4.4-18.3
				c-0.1-0.8-0.1-1.9-0.1-3.4c0-3.9,0.4-7.6,1.3-11.1c0.9-3.5,2.4-6.7,4.4-9.6c2-2.9,4.9-5.2,8.5-7s7.9-2.7,13-2.8
				c3.4,0,6.7,0.4,10,1.2c3.3,0.8,6.3,1.9,9,3.3c2.7,1.4,5.1,3.2,7.1,5.2c2,2,3.2,4.2,3.8,6.6l-17.5,11.4c-1.2-2.9-5.1-4.4-11.8-4.4
				c-1.5,0-3.1,1.1-4.6,3.2c-1.6,2.2-2.4,4.6-2.4,7.3c0.1,2.1,0.7,4,1.8,5.9c1.1,1.9,3,2.9,5.8,3c0.2,0,0.6-0.1,1.2-0.2
				c0.6-0.1,1.1-0.3,1.6-0.4C207.8,99.3,208.3,99.2,208.7,99.1z"/>
			<path class="st3" d="M265.7,62.3c2.9-6.2,9-9.3,18.2-9.3c4.9,0,10,0.7,15.4,2.1s11.8,3.2,19.2,5.6c-0.6,1.3-1.8,4.6-3.7,9.8
				c-1.9,5.2-2.9,7.8-3,7.8c-0.2-0.2-1.4-0.9-3.6-2.1c-2.2-1.2-4.5-2.3-7.1-3.4c-2.6-1.1-4.7-1.7-6.3-1.9c-0.7-0.1-2.4-0.5-5.1-1.2
				c-2.7-0.7-4.7-1.1-6-1.1c-1.2,0-2.1,0.2-2.7,0.7c-1.1,0.8-1.6,1.6-1.6,2.7c0,0.9,0.4,2,1.3,3.1c0.9,1.1,2,2.2,3.5,3.3
				c1.4,1.1,3,2.2,4.8,3.2c1.7,1,3.5,2,5.2,2.8c3.5,1.7,6.5,3.7,9.1,5.9c2.6,2.2,4.6,4.4,6,6.6c1.4,2.2,2.5,4.4,3.1,6.7
				c0.7,2.3,1,4.4,1,6.4c0,2.4-0.4,4.5-1.3,6.5c-1.6,3.4-3.9,5.8-7,7.3c-3.1,1.5-6.7,2.3-11,2.3c-2.4,0-5.2-0.3-8.3-0.8
				c-3.1-0.5-6-1.1-8.9-1.9s-5.9-1.7-9-2.7c-3.2-1-5.9-1.9-8.3-2.7c0.4-0.8,1-2.4,1.9-4.8c0.9-2.4,1.6-4.4,2.2-6.2
				c0.6-1.7,1.2-3.3,1.7-4.6s0.8-2,0.9-2c0.7,0.6,3.2,1.9,7.3,3.9c4.2,2,7.4,3.2,9.6,3.4c0.8,0.1,2.3,0.4,4.3,0.9
				c2,0.5,3.4,0.9,4.1,1.1c0.7,0.2,1.6,0.3,2.6,0.3c1.2,0,2.1-0.2,2.7-0.7c1.2-0.9,1.8-1.8,1.8-2.7c0-2.1-2.7-4.6-8.2-7.5
				c-3.3-1.7-7-4.2-11.1-7.3c-4.1-3.1-7.6-6.8-10.7-10.9c-3.1-4.1-4.6-8.2-4.6-12.4C264.2,66.4,264.7,64.4,265.7,62.3z"/>
			<path class="st3" d="M328.2,124.3l1.9,31.4l-17.6,0.9l-2.7-50.7v-0.4c-0.1-1.3-0.2-2.3-0.2-2.9L309,88.9l-5.8,1.3l1.9-9.6
				l19.8-8.3l0.5,7.2c3.1-1.5,6.2-2.2,9.4-2.2c3.9,0,7.8,1.1,11.8,3.3c1.8,1,3.4,2.3,4.5,4c1.2,1.7,2,3.6,2.5,5.7
				c0.5,2.1,0.8,4.3,0.8,6.5c0,1.9-0.2,3.7-0.4,5.4c-0.3,1.7-0.7,3.3-1.2,4.8c-0.5,1.5-1.1,2.7-1.8,3.7c-2.2,3.3-4.6,5.9-7.1,8
				s-5.2,3.5-7.8,4.4C333.5,123.9,330.9,124.3,328.2,124.3z M326.4,93.8c0,1.5,0.3,2.9,1,4.3c0.7,1.4,1.4,2.4,2.2,2.9
				c2.1,1.3,4.1,2,5.9,2c1.8,0,3.5-0.6,4.9-1.9c1.4-1.2,2.5-2.8,3.3-4.8c0.8-1.9,1.1-3.9,1.1-5.8c0-1.3-0.2-2.5-0.5-3.6
				c-0.4,2-1.4,3.7-2.9,5.2c-1.5,1.5-2.9,2.3-4.3,2.3c-0.7,0-1.3-0.2-1.9-0.5c-0.8-0.6-1.2-1.7-1.2-3.3c0-1.2,0.4-2.4,1.2-3.6
				c0.8-1.2,2.1-2.1,3.8-2.8c-2.1,0-4.1,0.4-5.9,1.3s-3.3,2.1-4.6,3.6C327.5,90.8,326.7,92.3,326.4,93.8z"/>
			<path class="st3" d="M387.3,101.2l9.4,11.4c-0.8,2.2-2.5,4.2-5.4,6c-2.8,1.8-6.2,3.3-10.1,4.3c-3.9,1.1-7.8,1.6-11.7,1.6
				c-3.4,0-6.5-0.5-9.2-1.4s-4.8-2.3-6.2-4.1c-2.5-3.2-3.8-7.2-3.8-12.2c0-3.9,0.7-7.8,2.1-11.5s2.9-6.4,4.5-7.9
				c1.9-1.8,4-3.3,6.2-4.5c2.2-1.2,4.5-2.1,6.9-2.7c2.4-0.6,4.9-0.9,7.4-0.9c3.3,0,6.5,0.5,9.4,1.6c3,1.1,5.6,2.6,7.8,4.6L373.3,111
				c1.9,0,3.7-0.4,5.4-1.2c1.7-0.8,3.3-1.9,4.7-3.4C384.9,104.9,386.2,103.2,387.3,101.2z M376.5,92.1c-1.3-0.7-2.6-1-3.9-1
				c-1.4,0-2.8,0.3-4.1,0.9c-1.3,0.6-2.2,1.3-2.8,2c-1.6,2.1-2.4,4.4-2.4,6.9c0,0.9,0.1,1.8,0.3,2.6c0.2,0.8,0.5,2,0.9,3.4
				L376.5,92.1z"/>
			<path class="st3" d="M427.3,101.2l9.4,11.4c-0.8,2.2-2.5,4.2-5.4,6c-2.8,1.8-6.2,3.3-10.1,4.3c-3.9,1.1-7.8,1.6-11.7,1.6
				c-3.4,0-6.5-0.5-9.2-1.4s-4.8-2.3-6.2-4.1c-2.5-3.2-3.8-7.2-3.8-12.2c0-3.9,0.7-7.8,2.1-11.5s2.9-6.4,4.5-7.9
				c1.9-1.8,4-3.3,6.2-4.5c2.2-1.2,4.5-2.1,6.9-2.7c2.4-0.6,4.9-0.9,7.4-0.9c3.3,0,6.5,0.5,9.4,1.6c3,1.1,5.6,2.6,7.8,4.6L413.3,111
				c1.9,0,3.7-0.4,5.4-1.2c1.7-0.8,3.3-1.9,4.7-3.4C424.9,104.9,426.2,103.2,427.3,101.2z M416.5,92.1c-1.3-0.7-2.6-1-3.9-1
				c-1.4,0-2.8,0.3-4.1,0.9c-1.3,0.6-2.2,1.3-2.8,2c-1.6,2.1-2.4,4.4-2.4,6.9c0,0.9,0.1,1.8,0.3,2.6c0.2,0.8,0.5,2,0.9,3.4
				L416.5,92.1z"/>
			<path class="st3" d="M456.9,46.6l16.3-7.3l1,52.9c0.2,1.4,0.3,2.9,0.3,4.6c0,1.5-0.1,2.6-0.2,3.4l0.5,23.9l-17.6,0.9v-2.4
				c-2.9,1.2-5.8,1.8-8.7,1.8c-2.2,0-4.3-0.3-6.3-1c-2-0.7-3.7-1.6-5.1-2.7c-2.3-1.9-4.1-4.5-5.4-7.8c-1.3-3.3-2-6.7-2-10.4
				c0-6.3,1.8-11.3,5.4-15.2c3.1-3.3,6.3-5.8,9.7-7.5c3.3-1.7,6.7-2.5,10.2-2.5c1,0,1.7,0,2.2,0.1L456.9,46.6z M457.2,84.6
				c-1.4,0.2-2.8,0.6-4.2,1.4c-1.4,0.7-2.6,1.6-3.6,2.6c-1,1-1.8,2.1-2.3,3.3c-0.6,1.2-0.8,2.4-0.8,3.5c0,2.4,1.1,4.3,3.4,5.8
				c2,1.3,4,2,6,2c0.4,0,0.9-0.1,1.6-0.2v-8.3c-0.7,0-1.3-0.2-1.9-0.5c-0.8-0.6-1.2-1.8-1.2-3.6C454.2,87.9,455.2,85.9,457.2,84.6z"
				/>
			<path class="st3" d="M517.4,84.7l-13.8,9c-0.7-1.7-1.6-3.2-2.7-4.5c-1.1-1.2-2.3-1.9-3.5-1.9c-1.7,0-3.2,1.4-4.3,4.1
				c-1.1,2.6-1.7,7.2-1.7,13.7c0,4.6,0.2,9.9,0.7,16.1l-19.2,2.2c-1.1-8-1.7-15.2-1.7-21.5c0-1,0.1-2.5,0.2-4.3l-0.7-22.8l15.4-1.9
				l2.2,2.6c1.8-0.6,3.5-1.2,5.1-1.6c1.5-0.4,3-0.8,4.4-1.1c1.4-0.3,2.7-0.4,3.9-0.4c2.6,0,4.8,0.6,6.8,1.8c2.5,1.4,4.4,2.8,5.9,4.3
				S516.7,82,517.4,84.7z"/>
			<path class="st3" d="M516.9,74.2l19.2,2.2c-0.5,6.2-0.7,11.3-0.7,15.3c0,2,0.1,3.7,0.2,5.2c0.1,1.5,0.3,2.8,0.6,4
				c0.3,1.2,0.6,2.2,0.9,3.1c1.6,3.7,3.1,5.6,4.5,5.6c1,0,2.1-1.3,3.2-4c0.7-1.8,1.4-3.7,2-5.4c0.6-1.8,1-3.5,1.3-5.1
				c0.3-1.6,0.5-3.4,0.7-5.3c0.2-1.9,0.2-4,0.2-6.3c0-2.3,0-4.1-0.1-5.4l16.3,1c0.9,5.4,1.4,8.6,1.5,9.7c0.2,1.1,0.2,2.5,0.2,4.2
				c0,2.8-0.7,7.1-2.1,12.7c-0.7,2.8-2.2,5.8-4.5,8.9c-2.3,3.1-4.6,5.3-6.7,6.6c-3.4,1.9-7.3,2.9-11.8,2.9c-3.1,0-6.2-0.4-9.1-1.3
				c-3-0.9-5.7-2.2-8.1-3.9c-2.3-1.6-4.2-3.7-5.6-6.3c-1.4-2.6-2.4-5.4-2.9-8.5c-0.5-3.1-0.8-6.5-0.8-10.2c0-2.2,0.1-4.4,0.2-6.5
				c0.1-2.1,0.3-4.2,0.6-6.4C516.3,78.5,516.5,76.3,516.9,74.2z"/>
			<path class="st3" d="M580.2,77.7c2.9-0.9,5.4-1.7,7.5-2.1c2.1-0.5,4.1-0.7,6-0.7c2.6,0,4.8,0.6,6.7,1.7c2.3,1.3,4.8,3.6,7.5,6.8
				c2.7,3.2,4.3,6.2,5,8.9c1.4,5.5,2.1,10.4,2.1,14.5c0,2.2-0.1,4.5-0.4,6.9c-0.3,2.4-0.7,5.5-1.3,9.3l-16.3,1
				c0.1-1.3,0.1-3.2,0.1-5.6c0-10.2-1.4-18.9-4.2-26.1c-1.1-2.7-2.2-4-3.2-4c-1.4,0-2.9,1.9-4.5,5.6c-0.4,0.9-0.7,2-1,3.1
				c-0.2,1.2-0.4,2.5-0.5,3.9c-0.1,1.5-0.2,3.2-0.2,5.2c0,4,0.2,9.1,0.7,15.3l-19.2,2.2c-0.3-2.3-0.6-4.6-0.9-6.8
				c-0.3-2.3-0.5-4.4-0.6-6.3c-0.1-1.9-0.2-4-0.2-6.3c0-1,0.1-2.4,0.2-4.2l-0.7-22.8l15.4-2L580.2,77.7z"/>
			<path class="st3" d="M655.1,93c-0.8-0.3-2.7-0.9-5.7-1.8c-3-0.9-5.7-1.7-8-2.4c-2.4-0.7-5-1.3-7.8-2c-2.8-0.6-5.1-0.9-6.6-0.9
				c-0.8,0-1.5,0.1-1.9,0.4c-1.3,1-1.9,1.8-1.9,2.7c0,1.3,1.3,2.4,3.8,3.3c2.6,0.9,5.7,1.6,9.3,2.1c5,0.5,9,1.7,12.1,3.5
				s5.3,3.9,6.7,6.3c1.4,2.4,2.1,4.8,2.1,7.3c0,1.8-0.4,3.4-1.1,5c-3,6.4-8.8,9.6-17.4,9.6c-2.3,0-5-0.3-7.9-0.8
				c-2.9-0.5-5.8-1.1-8.5-1.9s-5.6-1.6-8.6-2.6c-3-1-5.9-1.9-8.5-2.8c0.7-1.4,1.5-3.1,2.6-5.1c1-2,2.1-3.9,3-5.8
				c1-1.9,1.5-2.9,1.5-3.1c0.8,0.7,1.7,1.3,2.8,1.7s2.8,0.9,5,1.5c2.2,0.6,3.8,1.1,5,1.6c2.5,0.9,5.1,1.4,7.9,1.4
				c1.7,0,3.3-0.2,4.8-0.5c1.5-0.4,2.3-0.6,2.4-0.9c0-0.7-1.2-1.3-3.5-2s-4.9-1.2-7.7-1.5c-3.2-0.4-6.5-1.2-9.7-2.4
				c-3.3-1.2-6-3-8.3-5.3s-3.4-5.2-3.4-8.7c0-2.6,0.7-5.4,2-8.2c1.5-3.2,3.6-5.5,6.6-7c2.9-1.4,6.4-2.2,10.5-2.2
				c4.7,0,9.5,0.7,14.5,2c5,1.3,11.7,3.4,20.3,6.2c-0.2,0.4-0.9,2.1-2.1,5s-2.2,5.1-2.8,6.4C655.6,92.4,655.2,93,655.1,93z"/>
		</g>
	</g>
</g>
<g>
</g>
<g>
</g>
<g>
</g>
<g>
</g>
<g>
</g>
<g>
</g>
<g>
</g>
<g>
</g>
<g>
</g>
<g>
</g>
<g>
</g>
<g>
</g>
<g>
</g>
<g>
</g>
<g>
</g>
</svg>
